<svg width="24" height="24" viewBox="0 0 24 24" fill="none" xmlns="http://www.w3.org/2000/svg">
<path fill-rule="evenodd" clip-rule="evenodd" d="M10.4093 5.62862C10.5018 5.5686 10.5774 5.4905 10.6338 5.40133C10.7116 5.27812 10.7526 5.13377 10.7501 4.98679C10.7572 4.30252 11.3141 3.75 12.0001 3.75C12.6904 3.75 13.2501 4.30964 13.2501 5C13.2501 5.29002 13.4173 5.55405 13.6795 5.67802C15.7637 6.66358 17.1357 8.7163 17.2501 11.0181V14C17.2501 14.0301 17.2519 14.0602 17.2555 14.0901C17.3509 14.8782 17.6403 15.6178 18.0844 16.25H5.91569C6.35983 15.6178 6.64924 14.8782 6.74463 14.0901C6.74825 14.0602 6.75007 14.0301 6.75007 14V11.0181C6.86413 8.72155 8.23013 6.67295 10.3064 5.68479C10.3423 5.66871 10.3767 5.6499 10.4093 5.62862ZM9.29207 4.51858C6.91977 5.80713 5.37845 8.24728 5.25089 10.9648C5.25034 10.9765 5.25007 10.9883 5.25007 11V13.9524C5.11472 14.9593 4.51596 15.846 3.6305 16.3474C3.33411 16.5152 3.18804 16.8617 3.27482 17.1911C3.36161 17.5205 3.65945 17.75 4.00007 17.75H20.0001C20.3407 17.75 20.6385 17.5205 20.7253 17.1911C20.8121 16.8617 20.666 16.5152 20.3696 16.3474C19.4842 15.846 18.8854 14.9593 18.7501 13.9524V11C18.7501 10.9883 18.7498 10.9765 18.7492 10.9648C18.6217 8.24728 17.0804 5.80713 14.7081 4.51858C14.4804 3.22934 13.3546 2.25 12.0001 2.25C10.6455 2.25 9.51971 3.22934 9.29207 4.51858Z" fill="#212121"/>
<path fill-rule="evenodd" clip-rule="evenodd" d="M9.00007 16.25C9.41428 16.25 9.75007 16.5858 9.75007 17V18C9.75007 19.2426 10.7574 20.25 12.0001 20.25C13.2427 20.25 14.2501 19.2426 14.2501 18V17C14.2501 16.5858 14.5859 16.25 15.0001 16.25C15.4143 16.25 15.7501 16.5858 15.7501 17V18C15.7501 20.0711 14.0711 21.75 12.0001 21.75C9.929 21.75 8.25007 20.0711 8.25007 18V17C8.25007 16.5858 8.58586 16.25 9.00007 16.25Z" fill="#212121"/>
</svg>
