<svg width="20" height="20" viewBox="0 0 20 20" fill="none" xmlns="http://www.w3.org/2000/svg">
<path fill-rule="evenodd" clip-rule="evenodd" d="M8.67409 4.69052C8.75114 4.6405 8.81419 4.57541 8.86115 4.50111C8.92604 4.39843 8.96021 4.27814 8.95812 4.15566C8.96402 3.58543 9.42811 3.125 9.99973 3.125C10.575 3.125 11.0414 3.59137 11.0414 4.16667C11.0414 4.40835 11.1807 4.62837 11.3992 4.73168C13.1361 5.55298 14.2795 7.26358 14.3747 9.18174V11.6667C14.3747 11.6918 14.3762 11.7169 14.3793 11.7418C14.4588 12.3985 14.6999 13.0148 15.07 13.5417H4.92941C5.29953 13.0148 5.54071 12.3985 5.6202 11.7418C5.62322 11.7169 5.62473 11.6918 5.62473 11.6667V9.18174C5.71978 7.26796 6.85812 5.56079 8.58835 4.73732C8.61825 4.72393 8.6469 4.70825 8.67409 4.69052ZM7.74306 3.76548C5.76615 4.83927 4.48172 6.87273 4.37542 9.13736C4.37496 9.14712 4.37473 9.15689 4.37473 9.16667V11.627C4.26194 12.4661 3.76297 13.205 3.02509 13.6228C2.7781 13.7627 2.65637 14.0514 2.72869 14.3259C2.80101 14.6004 3.04922 14.7917 3.33307 14.7917H16.6664C16.9502 14.7917 17.1985 14.6004 17.2708 14.3259C17.3431 14.0514 17.2214 13.7627 16.9744 13.6228C16.2365 13.205 15.7375 12.4661 15.6247 11.627V9.16667C15.6247 9.15689 15.6245 9.14712 15.624 9.13736C15.5177 6.87273 14.2333 4.83927 12.2564 3.76548C12.0667 2.69112 11.1285 1.875 9.99973 1.875C8.87094 1.875 7.93276 2.69111 7.74306 3.76548Z" fill="#212121"/>
<path fill-rule="evenodd" clip-rule="evenodd" d="M7.49973 13.5417C7.84491 13.5417 8.12473 13.8215 8.12473 14.1667V15C8.12473 16.0355 8.9642 16.875 9.99973 16.875C11.0353 16.875 11.8747 16.0355 11.8747 15V14.1667C11.8747 13.8215 12.1546 13.5417 12.4997 13.5417C12.8449 13.5417 13.1247 13.8215 13.1247 14.1667V15C13.1247 16.7259 11.7256 18.125 9.99973 18.125C8.27384 18.125 6.87473 16.7259 6.87473 15V14.1667C6.87473 13.8215 7.15455 13.5417 7.49973 13.5417Z" fill="#212121"/>
</svg>
