<svg width="48" height="48" viewBox="0 0 48 48" fill="none" xmlns="http://www.w3.org/2000/svg">
<rect width="48" height="48" rx="24" fill="black" fill-opacity="0.7"/>
<path d="M17 19H18C19.1046 19 20 18.1046 20 17C20 16.4477 20.4477 16 21 16H27C27.5523 16 28 16.4477 28 17C28 18.1046 28.8954 19 30 19H31C32.1046 19 33 19.8954 33 21V30C33 31.1046 32.1046 32 31 32H17C15.8954 32 15 31.1046 15 30V21C15 19.8954 15.8954 19 17 19" stroke="#FFFCFA" stroke-width="1.5" stroke-linecap="round" stroke-linejoin="round"/>
<circle cx="24" cy="25" r="3" stroke="#FFFCFA" stroke-width="1.5" stroke-linecap="round" stroke-linejoin="round"/>
</svg>
