<svg width="20" height="20" viewBox="0 0 20 20" fill="none" xmlns="http://www.w3.org/2000/svg">
<path d="M16.778 11.8428C17.0723 11.5513 17.0746 11.0765 16.7831 10.7822C16.4916 10.4878 16.0168 10.4856 15.7225 10.777L16.778 11.8428ZM10.0002 17.4999L9.47248 18.0328C9.76477 18.3223 10.2357 18.3223 10.528 18.0328L10.0002 17.4999ZM4.27801 10.777C3.98371 10.4856 3.50884 10.4878 3.21736 10.7822C2.92589 11.0765 2.92818 11.5513 3.22248 11.8428L4.27801 10.777ZM3.22716 11.8475C3.52401 12.1363 3.99884 12.1299 4.28772 11.833C4.57659 11.5361 4.57012 11.0613 4.27326 10.7724L3.22716 11.8475ZM10.0002 5.83829L9.39826 6.28568C9.53932 6.47548 9.76164 6.58763 9.99812 6.58829C10.2346 6.58895 10.4575 6.47803 10.5997 6.28902L10.0002 5.83829ZM15.7247 10.7799C15.4291 11.0701 15.4249 11.545 15.7151 11.8405C16.0054 12.136 16.4802 12.1403 16.7758 11.85L15.7247 10.7799ZM15.7225 10.777L9.47248 16.967L10.528 18.0328L16.778 11.8428L15.7225 10.777ZM10.528 16.967L4.27801 10.777L3.22248 11.8428L9.47248 18.0328L10.528 16.967ZM4.27326 10.7724C3.35164 9.87563 3.01164 8.53729 3.39345 7.30934L1.96109 6.86397C1.41166 8.63103 1.90093 10.5569 3.22716 11.8475L4.27326 10.7724ZM3.39345 7.30934C3.77526 6.08138 4.81422 5.17181 6.08188 4.95571L5.8298 3.47704C4.00561 3.78802 2.51053 5.09691 1.96109 6.86397L3.39345 7.30934ZM6.08188 4.95571C7.34953 4.73961 8.63117 5.25358 9.39826 6.28568L10.6022 5.3909C9.49829 3.90569 7.654 3.16607 5.8298 3.47704L6.08188 4.95571ZM10.5997 6.28902C11.37 5.26456 12.6489 4.75741 13.9119 4.97553L14.1672 3.49741C12.3496 3.18353 10.5092 3.91333 9.40076 5.38756L10.5997 6.28902ZM13.9119 4.97553C15.175 5.19365 16.2097 6.10035 16.5918 7.32383L18.0236 6.87667C17.4737 5.11606 15.9847 3.81129 14.1672 3.49741L13.9119 4.97553ZM16.5918 7.32383C16.9739 8.54731 16.6391 9.88172 15.7247 10.7799L16.7758 11.85C18.0916 10.5575 18.5735 8.63728 18.0236 6.87667L16.5918 7.32383Z" fill="#212121"/>
</svg>
