<svg width="36" height="36" viewBox="0 0 36 36" fill="none" xmlns="http://www.w3.org/2000/svg">
<path d="M25.0312 27.2812V17.3266L19.9688 13.9516V27.2812H25.0312Z" fill="#FFFCFA"/>
<path fill-rule="evenodd" clip-rule="evenodd" d="M18.2812 12.3619C18.2811 12.3701 18.2811 12.3783 18.2812 12.3865V27.2812H10.9688V12.8965L18.2812 9.24022V12.3619ZM14.625 13.7813C15.091 13.7813 15.4688 14.159 15.4688 14.625V14.6363C15.4688 15.1022 15.091 15.48 14.625 15.48C14.159 15.48 13.7812 15.1022 13.7812 14.6363V14.625C13.7812 14.159 14.159 13.7813 14.625 13.7813ZM15.4688 18C15.4688 17.534 15.091 17.1563 14.625 17.1563C14.159 17.1563 13.7812 17.534 13.7812 18V18.0113C13.7812 18.4772 14.159 18.855 14.625 18.855C15.091 18.855 15.4688 18.4772 15.4688 18.0113V18ZM14.625 20.5313C15.091 20.5313 15.4688 20.909 15.4688 21.375V21.3863C15.4688 21.8522 15.091 22.23 14.625 22.23C14.159 22.23 13.7812 21.8522 13.7812 21.3863V21.375C13.7812 20.909 14.159 20.5313 14.625 20.5313ZM15.4688 24.75C15.4688 24.284 15.091 23.9063 14.625 23.9063C14.159 23.9063 13.7812 24.284 13.7812 24.75V24.7613C13.7812 25.2272 14.159 25.605 14.625 25.605C15.091 25.605 15.4688 25.2272 15.4688 24.7613V24.75Z" fill="#FFFCFA"/>
<path fill-rule="evenodd" clip-rule="evenodd" d="M9 0C4.02944 0 0 4.02944 0 9V27C0 31.9706 4.02944 36 9 36H27C31.9706 36 36 31.9706 36 27V9C36 4.02944 31.9706 0 27 0H9ZM19.5686 7.15726C19.8173 7.311 19.9688 7.58258 19.9688 7.875V11.9234L26.343 16.173C26.5778 16.3294 26.7188 16.5929 26.7188 16.875V27.2812H28.125C28.591 27.2812 28.9688 27.659 28.9688 28.125C28.9688 28.591 28.591 28.9688 28.125 28.9688H25.8769L25.875 28.9688L25.8731 28.9688H7.875C7.40901 28.9688 7.03125 28.591 7.03125 28.125C7.03125 27.659 7.40901 27.2812 7.875 27.2812H9.28125V12.375C9.28125 12.0554 9.46181 11.7633 9.74766 11.6203L18.7477 7.12033C19.0092 6.98955 19.3198 7.00353 19.5686 7.15726Z" fill="#FFFCFA"/>
</svg>
