<svg width="20" height="20" viewBox="0 0 20 20" fill="none" xmlns="http://www.w3.org/2000/svg">
<path fill-rule="evenodd" clip-rule="evenodd" d="M14.799 5.64764C12.3074 3.5225 8.40328 3.36021 5.69495 5.28163C3.01446 7.18329 2.36795 10.503 4.10126 13.0666C4.21009 13.2275 4.23787 13.43 4.17643 13.6143L3.43852 15.828L6.28677 15.222C6.42283 15.1931 6.56466 15.2103 6.68979 15.2711C9.74804 16.7558 13.5539 15.9825 15.5794 13.5251C17.577 11.1017 17.261 7.74759 14.799 5.64764ZM2.46514 17.2908C2.52476 17.2942 2.58377 17.2889 2.64058 17.2758L6.34139 16.4884C9.84804 18.0818 14.1706 17.1995 16.544 14.3201C18.9902 11.3524 18.5733 7.22394 15.6102 4.6966C12.6766 2.19446 8.13983 2.0145 4.97167 4.26214C1.86366 6.4671 0.974486 10.3791 2.8958 13.5033L1.91059 16.459C1.89116 16.514 1.8793 16.572 1.876 16.6316C1.87164 16.7083 1.88165 16.784 1.90428 16.8553C1.93156 16.9418 1.97646 17.0189 2.03408 17.0832C2.09158 17.1477 2.1631 17.2009 2.24601 17.2377C2.31431 17.2682 2.38844 17.2866 2.46514 17.2908Z" fill="#212121"/>
<path fill-rule="evenodd" clip-rule="evenodd" d="M10.0002 9.375C10.3453 9.375 10.6252 9.65483 10.6252 10V10.0083C10.6252 10.3535 10.3453 10.6333 10.0002 10.6333C9.65499 10.6333 9.37517 10.3535 9.37517 10.0083V10C9.37517 9.65483 9.65499 9.375 10.0002 9.375Z" fill="#212121"/>
<path fill-rule="evenodd" clip-rule="evenodd" d="M6.66684 9.375C7.01201 9.375 7.29184 9.65483 7.29184 10V10.0083C7.29184 10.3535 7.01201 10.6333 6.66684 10.6333C6.32166 10.6333 6.04184 10.3535 6.04184 10.0083V10C6.04184 9.65483 6.32166 9.375 6.66684 9.375Z" fill="#212121"/>
<path fill-rule="evenodd" clip-rule="evenodd" d="M13.3335 9.375C13.6787 9.375 13.9585 9.65483 13.9585 10V10.0083C13.9585 10.3535 13.6787 10.6333 13.3335 10.6333C12.9883 10.6333 12.7085 10.3535 12.7085 10.0083V10C12.7085 9.65483 12.9883 9.375 13.3335 9.375Z" fill="#212121"/>
</svg>
