<svg width="24" height="24" viewBox="0 0 24 24" fill="none" xmlns="http://www.w3.org/2000/svg">
<path fill-rule="evenodd" clip-rule="evenodd" d="M17.7588 6.77718C14.7689 4.227 10.0839 4.03226 6.83394 6.33796C3.61735 8.61996 2.84154 12.6037 4.92151 15.6799C5.05211 15.8731 5.08545 16.116 5.01172 16.3372L4.12623 18.9936L7.54412 18.2664C7.70739 18.2317 7.87759 18.2524 8.02775 18.3253C11.6976 20.107 16.2647 19.179 18.6953 16.2301C21.0924 13.3221 20.7132 9.29712 17.7588 6.77718ZM2.95817 20.749C3.02971 20.7531 3.10053 20.7467 3.16869 20.7309L7.60967 19.786C11.8176 21.6982 17.0047 20.6394 19.8528 17.1842C22.7883 13.6229 22.2879 8.66873 18.7322 5.63593C15.2119 2.63336 9.76779 2.41741 5.966 5.11457C2.23639 7.76053 1.16938 12.4549 3.47496 16.204L2.2927 19.7508C2.2694 19.8168 2.25517 19.8864 2.25119 19.958C2.24597 20.05 2.25798 20.1409 2.28514 20.2264C2.31787 20.3302 2.37176 20.4226 2.4409 20.4999C2.5099 20.5772 2.59571 20.6411 2.69521 20.6852C2.77718 20.7218 2.86612 20.7439 2.95817 20.749Z" fill="#212121"/>
<path fill-rule="evenodd" clip-rule="evenodd" d="M12.0002 11.25C12.4144 11.25 12.7502 11.5858 12.7502 12V12.01C12.7502 12.4242 12.4144 12.76 12.0002 12.76C11.586 12.76 11.2502 12.4242 11.2502 12.01V12C11.2502 11.5858 11.586 11.25 12.0002 11.25Z" fill="#212121"/>
<path fill-rule="evenodd" clip-rule="evenodd" d="M8.0002 11.25C8.41442 11.25 8.7502 11.5858 8.7502 12V12.01C8.7502 12.4242 8.41442 12.76 8.0002 12.76C7.58599 12.76 7.2502 12.4242 7.2502 12.01V12C7.2502 11.5858 7.58599 11.25 8.0002 11.25Z" fill="#212121"/>
<path fill-rule="evenodd" clip-rule="evenodd" d="M16.0002 11.25C16.4144 11.25 16.7502 11.5858 16.7502 12V12.01C16.7502 12.4242 16.4144 12.76 16.0002 12.76C15.586 12.76 15.2502 12.4242 15.2502 12.01V12C15.2502 11.5858 15.586 11.25 16.0002 11.25Z" fill="#212121"/>
</svg>
