<svg width="28" height="28" viewBox="0 0 28 28" fill="none" xmlns="http://www.w3.org/2000/svg">
<g clip-path="url(#clip0_375_942)">
<path fill-rule="evenodd" clip-rule="evenodd" d="M6.31225 0H21.6877C25.1739 0 28 2.82609 28 6.31225V21.6877C28 25.1739 25.1739 28 21.6877 28H6.31225C2.82609 28 0 25.1739 0 21.6877V6.31225C0 2.82609 2.82609 0 6.31225 0ZM13.9975 5.10474C19.1451 5.10474 23.3329 8.50324 23.3329 12.6805C23.3329 14.35 22.6845 15.8585 21.3317 17.3416C19.3735 19.5965 14.9941 22.3431 13.9975 22.7622C13.0276 23.1701 13.1408 22.5305 13.1855 22.2782C13.1867 22.2712 13.1879 22.2646 13.189 22.2582C13.2126 22.1182 13.322 21.4594 13.322 21.4594C13.3535 21.2214 13.3859 20.8512 13.2914 20.615C13.1872 20.3551 12.7734 20.2204 12.4689 20.1547C7.98711 19.5624 4.66211 16.4255 4.66211 12.6805C4.66211 8.50324 8.84986 5.10474 13.9975 5.10474Z" fill="#FFFCFA"/>
<path d="M20.2268 15.0929H17.6018C17.5553 15.0929 17.5108 15.0744 17.478 15.0416C17.4452 15.0088 17.4268 14.9643 17.4268 14.9179V10.8447C17.4268 10.7983 17.4452 10.7538 17.478 10.721C17.5108 10.6882 17.5553 10.6697 17.6018 10.6697H20.2268C20.2732 10.6697 20.3177 10.6882 20.3505 10.721C20.3833 10.7538 20.4018 10.7983 20.4018 10.8447V11.5071C20.4018 11.5535 20.3833 11.598 20.3505 11.6309C20.3177 11.6637 20.2732 11.6821 20.2268 11.6821H18.4444V12.369H20.2268C20.2732 12.369 20.3177 12.3874 20.3505 12.4202C20.3833 12.4531 20.4018 12.4976 20.4018 12.544V13.2125C20.4018 13.2589 20.3833 13.3034 20.3505 13.3362C20.3177 13.3691 20.2732 13.3875 20.2268 13.3875H18.4444V14.0752H20.2268C20.2732 14.0752 20.3177 14.0937 20.3505 14.1265C20.3833 14.1593 20.4018 14.2038 20.4018 14.2502V14.9117C20.4026 14.9352 20.3987 14.9586 20.3902 14.9806C20.3818 15.0025 20.3691 15.0226 20.3527 15.0395C20.3364 15.0564 20.3168 15.0698 20.2952 15.079C20.2735 15.0882 20.2503 15.0929 20.2268 15.0929Z" fill="#FFFCFA"/>
<path d="M10.5249 15.0929C10.5713 15.0929 10.6158 15.0744 10.6487 15.0416C10.6815 15.0088 10.6999 14.9643 10.6999 14.9179V14.2564C10.6999 14.21 10.6815 14.1655 10.6487 14.1326C10.6158 14.0998 10.5713 14.0814 10.5249 14.0814H8.74254V10.8439C8.74254 10.7975 8.7241 10.753 8.69128 10.7201C8.65846 10.6873 8.61395 10.6689 8.56754 10.6689H7.90254C7.85613 10.6689 7.81161 10.6873 7.7788 10.7201C7.74598 10.753 7.72754 10.7975 7.72754 10.8439V14.9153C7.72754 14.9617 7.74598 15.0062 7.7788 15.039C7.81161 15.0718 7.85613 15.0903 7.90254 15.0903H10.5275L10.5249 15.0929Z" fill="#FFFCFA"/>
<path d="M12.1037 10.6619H11.4422C11.3436 10.6619 11.2637 10.7418 11.2637 10.8404V14.9144C11.2637 15.0129 11.3436 15.0929 11.4422 15.0929H12.1037C12.2023 15.0929 12.2822 15.0129 12.2822 14.9144V10.8404C12.2822 10.7418 12.2023 10.6619 12.1037 10.6619Z" fill="#FFFCFA"/>
<path d="M16.6108 10.6619H15.9493C15.9029 10.6619 15.8584 10.6803 15.8256 10.7131C15.7928 10.7459 15.7743 10.7905 15.7743 10.8369V13.2571L13.9106 10.7397C13.9063 10.7331 13.9013 10.7269 13.8957 10.7214L13.8852 10.7109L13.8756 10.703H13.8703L13.8607 10.696H13.8554L13.8458 10.6907H13.8397H13.8301H13.8239H13.8134H13.8064H13.7959H13.7889H13.7793H13.1047C13.0583 10.6907 13.0138 10.7092 12.9809 10.742C12.9481 10.7748 12.9297 10.8193 12.9297 10.8657V14.9397C12.9297 14.9862 12.9481 15.0307 12.9809 15.0635C13.0138 15.0963 13.0583 15.1147 13.1047 15.1147H13.7671C13.8135 15.1147 13.858 15.0963 13.8908 15.0635C13.9236 15.0307 13.9421 14.9862 13.9421 14.9397V12.4959L15.8084 15.0159C15.8207 15.0337 15.8361 15.0491 15.8539 15.0614L15.8644 15.0684H15.8697L15.8784 15.0727H15.8872H15.8933H15.9056C15.921 15.0766 15.9369 15.0786 15.9528 15.0789H16.6108C16.6572 15.0789 16.7017 15.0604 16.7346 15.0276C16.7674 14.9948 16.7858 14.9503 16.7858 14.9039V10.8404C16.7863 10.8171 16.7821 10.794 16.7735 10.7723C16.7649 10.7507 16.7521 10.731 16.7358 10.7144C16.7195 10.6977 16.7001 10.6845 16.6786 10.6755C16.6571 10.6665 16.6341 10.6619 16.6108 10.6619Z" fill="#FFFCFA"/>
</g>
<defs>
<clipPath id="clip0_375_942">
<rect width="28" height="28" fill="white"/>
</clipPath>
</defs>
</svg>
