<svg width="28" height="28" viewBox="0 0 28 28" fill="none" xmlns="http://www.w3.org/2000/svg">
<path d="M27.7211 8.40004C27.7211 8.40004 27.4477 6.46957 26.6055 5.62191C25.5391 4.50629 24.3469 4.50082 23.8 4.43519C19.8844 4.15082 14.0055 4.15082 14.0055 4.15082H13.9945C13.9945 4.15082 8.11562 4.15082 4.2 4.43519C3.65313 4.50082 2.46094 4.50629 1.39453 5.62191C0.552344 6.46957 0.284375 8.40004 0.284375 8.40004C0.284375 8.40004 0 10.6696 0 12.9336V15.0555C0 17.3196 0.278906 19.5891 0.278906 19.5891C0.278906 19.5891 0.552344 21.5196 1.38906 22.3672C2.45547 23.4828 3.85547 23.4446 4.47891 23.5649C6.72109 23.7782 14 23.8438 14 23.8438C14 23.8438 19.8844 23.8328 23.8 23.5539C24.3469 23.4883 25.5391 23.4828 26.6055 22.3672C27.4477 21.5196 27.7211 19.5891 27.7211 19.5891C27.7211 19.5891 28 17.325 28 15.0555V12.9336C28 10.6696 27.7211 8.40004 27.7211 8.40004ZM11.107 17.6313V9.76175L18.6703 13.7102L11.107 17.6313Z" fill="#FFFCFA"/>
</svg>
