<svg width="20" height="20" viewBox="0 0 20 20" fill="none" xmlns="http://www.w3.org/2000/svg">
<path fill-rule="evenodd" clip-rule="evenodd" d="M10 3.125C6.20304 3.125 3.125 6.20304 3.125 10C3.125 13.797 6.20304 16.875 10 16.875C13.797 16.875 16.875 13.797 16.875 10C16.875 6.20304 13.797 3.125 10 3.125ZM1.875 10C1.875 5.51269 5.51269 1.875 10 1.875C14.4873 1.875 18.125 5.51269 18.125 10C18.125 14.4873 14.4873 18.125 10 18.125C5.51269 18.125 1.875 14.4873 1.875 10Z" fill="#FFFCFA"/>
<path fill-rule="evenodd" clip-rule="evenodd" d="M10 6.45833C8.96447 6.45833 8.125 7.2978 8.125 8.33333C8.125 9.36887 8.96447 10.2083 10 10.2083C11.0355 10.2083 11.875 9.36887 11.875 8.33333C11.875 7.2978 11.0355 6.45833 10 6.45833ZM6.875 8.33333C6.875 6.60744 8.27411 5.20833 10 5.20833C11.7259 5.20833 13.125 6.60744 13.125 8.33333C13.125 10.0592 11.7259 11.4583 10 11.4583C8.27411 11.4583 6.875 10.0592 6.875 8.33333Z" fill="#FFFCFA"/>
<path fill-rule="evenodd" clip-rule="evenodd" d="M14.2628 15.8914C13.92 14.744 12.8644 13.9579 11.6669 13.9583H8.33331C7.13741 13.958 6.08266 14.742 5.73854 15.8873C5.63921 16.2179 5.29071 16.4054 4.96013 16.3061C4.62955 16.2067 4.44208 15.8582 4.54141 15.5277C5.04433 13.8538 6.58553 12.7079 8.33331 12.7083H11.6664C13.4166 12.7078 14.9595 13.8567 15.4605 15.5336C15.5593 15.8643 15.3713 16.2125 15.0405 16.3113C14.7098 16.4102 14.3616 16.2221 14.2628 15.8914Z" fill="#FFFCFA"/>
</svg>
