<svg width="18" height="18" viewBox="0 0 18 18" fill="none" xmlns="http://www.w3.org/2000/svg">
<path fill-rule="evenodd" clip-rule="evenodd" d="M9 2.125C5.20304 2.125 2.125 5.20304 2.125 9C2.125 12.797 5.20304 15.875 9 15.875C12.797 15.875 15.875 12.797 15.875 9C15.875 5.20304 12.797 2.125 9 2.125ZM0.875 9C0.875 4.51269 4.51269 0.875 9 0.875C13.4873 0.875 17.125 4.51269 17.125 9C17.125 13.4873 13.4873 17.125 9 17.125C4.51269 17.125 0.875 13.4873 0.875 9Z" fill="#F57F17"/>
<path fill-rule="evenodd" clip-rule="evenodd" d="M9 5.04167C9.34518 5.04167 9.625 5.32149 9.625 5.66667V9C9.625 9.34518 9.34518 9.625 9 9.625C8.65482 9.625 8.375 9.34518 8.375 9V5.66667C8.375 5.32149 8.65482 5.04167 9 5.04167Z" fill="#F57F17"/>
<path fill-rule="evenodd" clip-rule="evenodd" d="M8.3749 12.3333C8.3749 11.9882 8.65472 11.7083 8.9999 11.7083H9.00824C9.35341 11.7083 9.63324 11.9882 9.63324 12.3333C9.63324 12.6785 9.35341 12.9583 9.00824 12.9583H8.9999C8.65472 12.9583 8.3749 12.6785 8.3749 12.3333Z" fill="#F57F17"/>
</svg>
