<svg width="18" height="18" viewBox="0 0 18 18" fill="none" xmlns="http://www.w3.org/2000/svg">
<path fill-rule="evenodd" clip-rule="evenodd" d="M9 2.12502C5.20304 2.12502 2.125 5.20307 2.125 9.00002C2.125 12.797 5.20304 15.875 9 15.875C12.797 15.875 15.875 12.797 15.875 9.00002C15.875 5.20307 12.797 2.12502 9 2.12502ZM0.875 9.00002C0.875 4.51271 4.51269 0.875023 9 0.875023C13.4873 0.875023 17.125 4.51271 17.125 9.00002C17.125 13.4873 13.4873 17.125 9 17.125C4.51269 17.125 0.875 13.4873 0.875 9.00002Z" fill="#A67E59"/>
<path fill-rule="evenodd" clip-rule="evenodd" d="M1.37498 6.50002C1.37498 6.15484 1.6548 5.87502 1.99998 5.87502H16C16.3452 5.87502 16.625 6.15484 16.625 6.50002C16.625 6.8452 16.3452 7.12502 16 7.12502H1.99998C1.6548 7.12502 1.37498 6.8452 1.37498 6.50002Z" fill="#A67E59"/>
<path fill-rule="evenodd" clip-rule="evenodd" d="M1.37498 11.5C1.37498 11.1548 1.6548 10.875 1.99998 10.875H16C16.3452 10.875 16.625 11.1548 16.625 11.5C16.625 11.8452 16.3452 12.125 16 12.125H1.99998C1.6548 12.125 1.37498 11.8452 1.37498 11.5Z" fill="#A67E59"/>
<path fill-rule="evenodd" clip-rule="evenodd" d="M8.91425 0.969795C9.20708 1.15254 9.29633 1.53807 9.11359 1.83091C6.37574 6.21823 6.37574 11.7818 9.11359 16.1691C9.29633 16.462 9.20708 16.8475 8.91425 17.0303C8.62141 17.213 8.23588 17.1237 8.05313 16.8309C5.06256 12.0386 5.06256 5.96145 8.05313 1.16914C8.23588 0.876304 8.62141 0.787054 8.91425 0.969795Z" fill="#A67E59"/>
<path fill-rule="evenodd" clip-rule="evenodd" d="M9.08578 0.969795C9.37862 0.787054 9.76415 0.876304 9.94689 1.16914C12.9375 5.96145 12.9375 12.0386 9.94689 16.8309C9.76415 17.1237 9.37862 17.213 9.08578 17.0303C8.79295 16.8475 8.7037 16.462 8.88644 16.1691C11.6243 11.7818 11.6243 6.21823 8.88644 1.83091C8.7037 1.53807 8.79295 1.15254 9.08578 0.969795Z" fill="#A67E59"/>
</svg>
