<svg width="20" height="20" viewBox="0 0 20 20" fill="none" xmlns="http://www.w3.org/2000/svg">
<path fill-rule="evenodd" clip-rule="evenodd" d="M10 3.12499C6.20304 3.12499 3.125 6.20303 3.125 9.99999C3.125 13.7969 6.20304 16.875 10 16.875C13.797 16.875 16.875 13.7969 16.875 9.99999C16.875 6.20303 13.797 3.12499 10 3.12499ZM1.875 9.99999C1.875 5.51268 5.51269 1.87499 10 1.87499C14.4873 1.87499 18.125 5.51268 18.125 9.99999C18.125 14.4873 14.4873 18.125 10 18.125C5.51269 18.125 1.875 14.4873 1.875 9.99999Z" fill="#212121"/>
<path fill-rule="evenodd" clip-rule="evenodd" d="M2.37498 7.49999C2.37498 7.15481 2.6548 6.87499 2.99998 6.87499H17C17.3452 6.87499 17.625 7.15481 17.625 7.49999C17.625 7.84517 17.3452 8.12499 17 8.12499H2.99998C2.6548 8.12499 2.37498 7.84517 2.37498 7.49999Z" fill="#212121"/>
<path fill-rule="evenodd" clip-rule="evenodd" d="M2.37498 12.5C2.37498 12.1548 2.6548 11.875 2.99998 11.875H17C17.3452 11.875 17.625 12.1548 17.625 12.5C17.625 12.8452 17.3452 13.125 17 13.125H2.99998C2.6548 13.125 2.37498 12.8452 2.37498 12.5Z" fill="#212121"/>
<path fill-rule="evenodd" clip-rule="evenodd" d="M9.91425 1.96976C10.2071 2.15251 10.2963 2.53804 10.1136 2.83087C7.37574 7.2182 7.37574 12.7818 10.1136 17.1691C10.2963 17.4619 10.2071 17.8475 9.91425 18.0302C9.62141 18.213 9.23588 18.1237 9.05313 17.8309C6.06256 13.0386 6.06256 6.96141 9.05313 2.16911C9.23588 1.87627 9.62141 1.78702 9.91425 1.96976Z" fill="#212121"/>
<path fill-rule="evenodd" clip-rule="evenodd" d="M10.0858 1.96976C10.3786 1.78702 10.7642 1.87627 10.9469 2.16911C13.9375 6.96141 13.9375 13.0386 10.9469 17.8309C10.7642 18.1237 10.3786 18.213 10.0858 18.0302C9.79295 17.8475 9.7037 17.4619 9.88644 17.1691C12.6243 12.7818 12.6243 7.2182 9.88644 2.83087C9.7037 2.53804 9.79295 2.15251 10.0858 1.96976Z" fill="#212121"/>
</svg>
